<svg id="Blue" xmlns="http://www.w3.org/2000/svg" viewBox="0 0 129 129"><defs><style>.cls-1{fill:#fff;}</style></defs><title>google</title><circle cx="64.5" cy="64.5" r="64.5"/><path class="cls-1" d="M31.11,63.31c.18-10.92,10.22-20.49,21.15-20.13,5.23-.24,10.16,2,14.16,5.24A76.37,76.37,0,0,1,61.05,54c-4.82-3.33-11.68-4.28-16.5-.44-6.89,4.77-7.21,16-.57,21.17,6.45,5.85,18.64,2.94,20.42-6-4-.06-8.09,0-12.13-.13,0-2.41,0-4.82,0-7.23,6.75,0,13.51,0,20.27,0,.41,5.67-.34,11.7-3.83,16.39-5.27,7.42-15.86,9.59-24.13,6.41S30.41,72.24,31.11,63.31Z" transform="translate(0.06 0.13)"/><path class="cls-1" d="M85.7,55.25h6q0,3,0,6.06l6,0v6l-6,.06q0,3,0,6h-6c0-2,0-4,0-6l-6.05-.07v-6l6.05,0C85.66,59.28,85.68,57.27,85.7,55.25Z" transform="translate(0.06 0.13)"/></svg>