<svg id="Blue" xmlns="http://www.w3.org/2000/svg" viewBox="0 0 129 129"><defs><style>.cls-1{fill:#fff;}</style></defs><title>linkedin</title><circle cx="64.5" cy="64.5" r="64.5"/><rect class="cls-1" x="36.78" y="54.89" width="11.89" height="38.22"/><path class="cls-1" d="M67.93,74.08c0-5,.94-9.82,7.12-9.82S81.22,70,81.22,74.4V93H93.1V72c0-10.29-2.22-18.2-14.25-18.2A12.48,12.48,0,0,0,67.61,60h-.16V54.76H56.06V93H67.93Z" transform="translate(0.06 0.13)"/><path class="cls-1" d="M42.67,49.54a6.89,6.89,0,1,0-6.89-6.89A6.88,6.88,0,0,0,42.67,49.54Z" transform="translate(0.06 0.13)"/></svg>