<svg id="Blue" xmlns="http://www.w3.org/2000/svg" viewBox="0 0 129 129"><defs><style>.cls-1{fill:#fff;}</style></defs><title>twitter</title><circle cx="64.5" cy="64.5" r="64.5"/><path class="cls-1" d="M92.37,47.05a22.74,22.74,0,0,1-6.58,1.8,11.5,11.5,0,0,0,5-6.34,22.76,22.76,0,0,1-7.28,2.78,11.47,11.47,0,0,0-19.83,7.85,11.29,11.29,0,0,0,.3,2.61,32.55,32.55,0,0,1-23.63-12,11.47,11.47,0,0,0,3.55,15.3,11.28,11.28,0,0,1-5.19-1.43v.15A11.46,11.46,0,0,0,47.94,69a11.12,11.12,0,0,1-3,.41,11.7,11.7,0,0,1-2.15-.21,11.47,11.47,0,0,0,10.7,8,23,23,0,0,1-14.23,4.91,24.42,24.42,0,0,1-2.73-.16,32.43,32.43,0,0,0,17.56,5.15c21.09,0,32.61-17.47,32.61-32.62,0-.49,0-1,0-1.48A23.21,23.21,0,0,0,92.37,47.05Z" transform="translate(0.06 0.13)"/></svg>